<svg width="547" height="547" viewBox="0 0 547 547" fill="none" xmlns="http://www.w3.org/2000/svg">
<rect width="546.094" height="546.094" fill="#2EE2B3"/>
<path d="M267.689 166.613C234.132 152.531 201.962 154.299 171.18 171.917C169.761 172.741 169.631 172.574 170.789 171.416C199.798 142.689 239.416 126.792 280.489 129.248C374.104 134.85 436.816 223.63 411.202 313.709C399.592 354.563 371.913 382.79 328.978 390.347C291.207 396.981 249.539 382.649 228.056 349.368C226.856 347.511 227.133 347.256 228.885 348.601C279.002 387.03 347.786 348.992 344.515 286.953C342.45 247.825 327.471 214.81 299.578 187.908C289.908 178.572 279.279 171.474 267.689 166.613Z" fill="black"/>
<path d="M303.99 413.707C228.775 429.996 153.499 384.823 133.799 310.235C127.759 287.38 127.42 263.873 132.782 239.715C136.235 224.151 143.172 210.293 153.592 198.141C182.633 164.281 230.544 156.708 270.286 176.846C272.456 177.951 272.326 178.593 269.895 178.77C254.108 179.928 244.031 188.612 234.314 200.707C210.677 230.113 199.782 263.054 201.628 299.532C202.296 312.853 205.832 325.939 212.237 338.79C226.726 367.82 248.626 386.821 277.938 395.792C300.813 402.77 327.225 402.144 348.881 393.914C352.928 392.381 353.121 392.777 349.459 395.103C335.576 403.949 320.419 410.15 303.99 413.707Z" fill="black"/>
</svg>
